<svg id="Final_Logo" data-name="Final Logo" xmlns="http://www.w3.org/2000/svg" viewBox="0 0 307.61 133.2"><defs><style>.cls-1{fill:#d5af34;}</style></defs><path d="M203.12,129.7V30.21L164.33,7.53a.31.31,0,0,0-.47.27v3.43a.31.31,0,0,0,.09.22A4.9,4.9,0,1,1,155.78,16a5.33,5.33,0,0,1,1.31-4.91,6.94,6.94,0,0,0,1.82-4.81c0-3.48-2.29-6.3-5.11-6.3s-5.1,2.82-5.1,6.3a6.89,6.89,0,0,0,1.82,4.81,5.32,5.32,0,0,1,1.3,4.91,4.9,4.9,0,1,1-8.17-4.57.32.32,0,0,0,.1-.22V7.8a.32.32,0,0,0-.48-.27L104.49,30.21V129.7H0v3.49H122.34v-92L153.8,60.36,185.27,41.2v92H307.61V129.7Z"/><polygon class="cls-1" points="132.72 133.2 132.72 59.68 153.8 72.52 174.88 59.68 174.88 133.19 132.72 133.2"/><circle cx="165.99" cy="97.55" r="3.03"/></svg>