<svg id="Final_Logo" data-name="Final Logo" xmlns="http://www.w3.org/2000/svg" viewBox="0 0 307.61 217.1"><defs><style>.cls-1{fill:#d5af34;}</style></defs><title>logo-full</title><path d="M19.1,168.79,29,146.23H37.4v.92h-1a6.73,6.73,0,0,0-2.64.33,1.77,1.77,0,0,0-.83,1.24,25.71,25.71,0,0,0-.21,4.3V166.4a33.2,33.2,0,0,0,.16,4.21,2.17,2.17,0,0,0,.81,1.48,4.57,4.57,0,0,0,2.51.48h1.2v.93h-13v-.93h1a4.72,4.72,0,0,0,2.4-.44,2,2,0,0,0,.86-1.38,28.75,28.75,0,0,0,.19-4.35V149L18,173.5h-.94L6.17,149v16a32.65,32.65,0,0,0,.2,4.46,3.45,3.45,0,0,0,1.25,2.09,4.88,4.88,0,0,0,2.93,1v.93H.8v-.93a5,5,0,0,0,2.84-.95A3.41,3.41,0,0,0,5,169.52a29.25,29.25,0,0,0,.24-4.63V153a27.38,27.38,0,0,0-.19-4.2,1.85,1.85,0,0,0-.8-1.31,6.33,6.33,0,0,0-2.69-.36H.8v-.92H9.11Z"/><path d="M40.3,159.68a13,13,0,0,1,4.22-10.14,15.16,15.16,0,0,1,10.54-3.82,15.49,15.49,0,0,1,10.65,3.78Q70,153.28,70,159.82a13.57,13.57,0,0,1-4.09,10.26Q61.79,174,55.12,174a15,15,0,0,1-10.66-3.92A13.64,13.64,0,0,1,40.3,159.68Zm4.6.14q0,6.59,2.63,9.88c1.75,2.2,4.37,3.29,7.87,3.29a8.86,8.86,0,0,0,7.28-3.29q2.68-3.3,2.68-9.84,0-6.36-2.64-9.74a9.08,9.08,0,0,0-7.64-3.39A9.06,9.06,0,0,0,47.53,150Q44.91,153.34,44.9,159.82Z"/><path d="M97.44,174.12,78.15,148.56v18.92a13.22,13.22,0,0,0,.23,3.1A2.59,2.59,0,0,0,79.7,172a6.75,6.75,0,0,0,3.25.62v.93H72.78v-.93a7.35,7.35,0,0,0,3-.71A2.33,2.33,0,0,0,77,170.62a15,15,0,0,0,.19-3.14V153a18.94,18.94,0,0,0-.29-4.2,2,2,0,0,0-.92-1.37,8.23,8.23,0,0,0-2.83-.3v-.92h8l16.15,21.33V151.25a6,6,0,0,0-.37-2.53,2.66,2.66,0,0,0-1.52-1.15,8,8,0,0,0-2.75-.42v-.92h9.89v.92a7.26,7.26,0,0,0-2.72.66,2.46,2.46,0,0,0-1.27,1.26,8,8,0,0,0-.27,2.49v22.56Z"/><path d="M124.73,146.23h9.11v.92a4.89,4.89,0,0,0-2.71.82,2.79,2.79,0,0,0-1.09,1.55,17.25,17.25,0,0,0-.21,3.36V162a35.82,35.82,0,0,1-.27,5.17,7.12,7.12,0,0,1-1.57,3.32,8.71,8.71,0,0,1-3.65,2.59,14,14,0,0,1-5.43,1,13.83,13.83,0,0,1-6.16-1.24,7.9,7.9,0,0,1-3.6-3.19,11,11,0,0,1-1.08-5.26l0-2.8V153a27.38,27.38,0,0,0-.19-4.2,1.81,1.81,0,0,0-.8-1.31,6.33,6.33,0,0,0-2.69-.36h-.62v-.92h12.45v.92h-.54a6.73,6.73,0,0,0-2.64.33,1.77,1.77,0,0,0-.83,1.24A25.71,25.71,0,0,0,112,153v8.59a33.09,33.09,0,0,0,.41,6.34,5.53,5.53,0,0,0,2.32,3.26,8.39,8.39,0,0,0,5.09,1.4,10.79,10.79,0,0,0,4.53-.93,7.32,7.32,0,0,0,3-2.34,6.59,6.59,0,0,0,1.22-2.87,34.6,34.6,0,0,0,.22-4.66v-9.29a13.91,13.91,0,0,0-.26-3.24,2.56,2.56,0,0,0-1.13-1.47,6.06,6.06,0,0,0-2.73-.66Z"/><path d="M153.83,168.79l9.93-22.56h8.37v.92h-1a6.63,6.63,0,0,0-2.63.33,1.78,1.78,0,0,0-.84,1.24,25.71,25.71,0,0,0-.21,4.3V166.4a35.31,35.31,0,0,0,.16,4.21,2.18,2.18,0,0,0,.82,1.48,4.53,4.53,0,0,0,2.5.48h1.21v.93h-13v-.93h1a4.74,4.74,0,0,0,2.41-.44,2.09,2.09,0,0,0,.86-1.38,28.75,28.75,0,0,0,.19-4.35V149l-10.8,24.46h-.94L140.9,149v16a31,31,0,0,0,.2,4.46,3.48,3.48,0,0,0,1.24,2.09,4.94,4.94,0,0,0,2.94,1v.93h-9.75v-.93a5,5,0,0,0,2.84-.95,3.45,3.45,0,0,0,1.34-2.1,29.25,29.25,0,0,0,.24-4.63V153a27.38,27.38,0,0,0-.19-4.2,1.88,1.88,0,0,0-.8-1.31,6.33,6.33,0,0,0-2.69-.36h-.74v-.92h8.3Z"/><path d="M196.43,165h1l-.58,8.49H174.22v-.93h.57a4.24,4.24,0,0,0,2.62-.54,2.41,2.41,0,0,0,.75-1.38,31.31,31.31,0,0,0,.16-4.25V153a29.44,29.44,0,0,0-.17-4.1,1.9,1.9,0,0,0-.78-1.38,5.53,5.53,0,0,0-2.58-.39v-.92h19.48l.65,6.79H194a10.57,10.57,0,0,0-1.58-4.05,4,4,0,0,0-2.22-1.51,20.08,20.08,0,0,0-4.14-.31h-3.78v11.44h2.89a7.83,7.83,0,0,0,2.79-.34,1.76,1.76,0,0,0,1-1,9.41,9.41,0,0,0,.25-2.71h.95v9.33h-.95a7.82,7.82,0,0,0-.38-3,1.83,1.83,0,0,0-1.11-1,9.49,9.49,0,0,0-2.49-.23h-3V166c0,3.23.2,5.13.62,5.7s1.53.85,3.36.85h2a9.67,9.67,0,0,0,3.54-.55,6.36,6.36,0,0,0,2.64-2.27A13.44,13.44,0,0,0,196.43,165Z"/><path d="M224,174.12l-19.29-25.56v18.92a13.22,13.22,0,0,0,.23,3.1,2.67,2.67,0,0,0,1.32,1.37,6.77,6.77,0,0,0,3.26.62v.93H199.36v-.93a7.35,7.35,0,0,0,3-.71,2.3,2.3,0,0,0,1.21-1.24,14.71,14.71,0,0,0,.2-3.14V153a18.74,18.74,0,0,0-.3-4.2,2,2,0,0,0-.92-1.37,8.19,8.19,0,0,0-2.83-.3v-.92h8.05l16.15,21.33V151.25a6.2,6.2,0,0,0-.37-2.53,2.69,2.69,0,0,0-1.52-1.15,8.09,8.09,0,0,0-2.76-.42v-.92h9.9v.92a7.32,7.32,0,0,0-2.73.66,2.54,2.54,0,0,0-1.27,1.26,8,8,0,0,0-.27,2.49v22.56Z"/><path d="M231.52,152.78h-.93l.15-6.55H257.2l.14,6.55h-.86a10.45,10.45,0,0,0-1.27-3.89,3.34,3.34,0,0,0-1.73-1.47,12.75,12.75,0,0,0-3.16-.27h-4.38V166.4a36.14,36.14,0,0,0,.15,4.2,2.14,2.14,0,0,0,.81,1.49,4.6,4.6,0,0,0,2.5.48h1.33v.93h-13.6v-.93h1.41a4.78,4.78,0,0,0,2.42-.44,2.07,2.07,0,0,0,.87-1.38,30.24,30.24,0,0,0,.19-4.35V147.15h-4a16.61,16.61,0,0,0-3.55.25,3.21,3.21,0,0,0-1.69,1.52A10.73,10.73,0,0,0,231.52,152.78Z"/><path d="M272.61,163.44H262.25l-.7,1.73a17.38,17.38,0,0,0-1.57,4.91,2.2,2.2,0,0,0,.83,1.86,3.46,3.46,0,0,0,2.14.63v.93h-8.1v-.93a4.37,4.37,0,0,0,2.69-1.27,16.07,16.07,0,0,0,2.14-4.2c.06-.2.38-1,1-2.33l7.93-18.93h.78l9.11,21.66,1.25,2.86a3.87,3.87,0,0,0,1.13,1.52,4.13,4.13,0,0,0,2.15.69v.93H272.27v-.93a8.1,8.1,0,0,0,2.66-.29,1.13,1.13,0,0,0,.69-1.16,11.44,11.44,0,0,0-.92-2.63Zm-.34-.9-4.83-11.63-4.81,11.63Z"/><path d="M307.26,165.47l-.2,8H283.89v-.93h.8a4.8,4.8,0,0,0,2.43-.44,2,2,0,0,0,.86-1.38,28.75,28.75,0,0,0,.19-4.35V153a27.38,27.38,0,0,0-.19-4.2,1.81,1.81,0,0,0-.8-1.31,6.33,6.33,0,0,0-2.69-.36h-.6v-.92H297v.92h-1.2a6.69,6.69,0,0,0-2.64.33,1.77,1.77,0,0,0-.83,1.24,25.71,25.71,0,0,0-.21,4.3V167.3a24,24,0,0,0,.16,3.7,1.72,1.72,0,0,0,.87,1.16,7.35,7.35,0,0,0,3.07.41h2.07a11.81,11.81,0,0,0,3.73-.44,5.26,5.26,0,0,0,2.31-1.93,15,15,0,0,0,2-4.73Z"/><path d="M203.12,129.7V30.21L164.33,7.53a.31.31,0,0,0-.47.27v3.43a.31.31,0,0,0,.09.22A4.9,4.9,0,1,1,155.78,16a5.33,5.33,0,0,1,1.31-4.91,6.94,6.94,0,0,0,1.82-4.81c0-3.48-2.29-6.3-5.11-6.3s-5.1,2.82-5.1,6.3a6.89,6.89,0,0,0,1.82,4.81,5.32,5.32,0,0,1,1.3,4.91,4.9,4.9,0,1,1-8.17-4.57.32.32,0,0,0,.1-.22V7.8a.32.32,0,0,0-.48-.27L104.49,30.21V129.7H0v3.49H122.34v-92L153.8,60.36,185.27,41.2v92H307.61V129.7Z"/><rect y="185.99" width="126.3" height="3.49"/><rect x="242.97" y="185.99" width="64.64" height="3.49"/><path class="cls-1" d="M145.45,181.61a18.21,18.21,0,0,1-.22,2.64q-.22,1.5-.6,3a20.88,20.88,0,0,1,3.3-5.67,5.2,5.2,0,0,1,3.91-2.07,2.7,2.7,0,0,1,1.51.45,1.45,1.45,0,0,1,.67,1.28,3.81,3.81,0,0,1-.45,1.54,5.05,5.05,0,0,1-.9,1.39c-.3.2-.45.13-.45-.23,0-.85-.58-1.27-1.73-1.27-1.76,0-3.33,1.31-4.74,3.94a53.49,53.49,0,0,0-4,10.94,1.25,1.25,0,0,1-1,1,5.88,5.88,0,0,1-1.46.22c-.55,0-.68-.27-.38-.82.45-1.06.88-2.2,1.28-3.42s.79-2.47,1.17-3.73.68-2.48.94-3.68.45-2.3.6-3.31q.3-2.25-.75-2.25a2.29,2.29,0,0,0-1.4.67,10.56,10.56,0,0,0-1.46,1.58.45.45,0,0,1-.53,0,.36.36,0,0,1-.07-.49,18.16,18.16,0,0,1,2.51-2.6,4.23,4.23,0,0,1,2.6-1.16Q145.45,179.51,145.45,181.61Z"/><path class="cls-1" d="M166.5,182.82a2.84,2.84,0,0,1-.83,2,7.76,7.76,0,0,1-2.25,1.62,24.43,24.43,0,0,1-3.27,1.31c-1.23.4-2.52.78-3.87,1.13q-.08.82-.12,1.65c0,.56,0,1.16,0,1.81a5.74,5.74,0,0,0,.82,3.16,2.62,2.62,0,0,0,2.33,1.27,5.56,5.56,0,0,0,2.82-.75,8.54,8.54,0,0,0,2.37-2c.2-.1.35-.07.45.08a.49.49,0,0,1,0,.52,11.79,11.79,0,0,1-3.19,3,7.27,7.27,0,0,1-4,1.24,4.23,4.23,0,0,1-3.2-1.28,5.16,5.16,0,0,1-1.24-3.75,15.08,15.08,0,0,1,.83-4.78,19.62,19.62,0,0,1,2.18-4.62,13.42,13.42,0,0,1,3.12-3.46,6,6,0,0,1,3.72-1.35,3.4,3.4,0,0,1,3.38,3.31Zm-5-1.36a4,4,0,0,0-3.08,1.51,9.61,9.61,0,0,0-2,4.73,14.84,14.84,0,0,0,5.3-1.54c1.13-.68,1.69-1.44,1.69-2.29a2.74,2.74,0,0,0-.52-1.73A1.72,1.72,0,0,0,161.54,181.46Z"/><path class="cls-1" d="M186.8,194c.1-.1.22-.1.37,0a.38.38,0,0,1,.15.45,13.25,13.25,0,0,1-3.12,3.23,4.92,4.92,0,0,1-2.59,1.05,1.24,1.24,0,0,1-1.09-.67,4.36,4.36,0,0,1-.53-1.84,12,12,0,0,1,.08-2.64,20.16,20.16,0,0,1,.64-3,34.13,34.13,0,0,1-4.29,5.45,9,9,0,0,1-4.36,2.74,2.74,2.74,0,0,1-2.29-1.31,7.09,7.09,0,0,1-.94-4.1,12.68,12.68,0,0,1,1-4.92,16.14,16.14,0,0,1,2.74-4.44,13.83,13.83,0,0,1,4-3.19,10,10,0,0,1,4.74-1.21,8,8,0,0,1,2.33.3,6.36,6.36,0,0,1,1.8.91,5.56,5.56,0,0,1,1.24-.72,3.89,3.89,0,0,1,1.47-.34c.25,0,.33.13.23.38a22.8,22.8,0,0,0-3,4.66,30,30,0,0,0-1.92,5,25.17,25.17,0,0,0-.86,4.25,4.12,4.12,0,0,0,.26,2.52c.25.35.7.36,1.35,0A9.31,9.31,0,0,0,186.8,194Zm-13.08,2.18a3.72,3.72,0,0,0,2.14-1.17,20.66,20.66,0,0,0,2.74-3,43.52,43.52,0,0,0,2.82-4.25,46.83,46.83,0,0,0,2.45-4.77,2.74,2.74,0,0,0-1.4-1.58,5.09,5.09,0,0,0-2.51-.6,6.06,6.06,0,0,0-3.12.86,8.7,8.7,0,0,0-2.6,2.41,12.63,12.63,0,0,0-1.8,3.64,15.25,15.25,0,0,0-.68,4.66,5.9,5.9,0,0,0,.57,2.75C172.7,195.83,173.17,196.2,173.72,196.2Z"/><path class="cls-1" d="M221.83,139.38a2.42,2.42,0,0,1,2.52,1.92,5.58,5.58,0,0,1-.49,4.08c-.1.11-.23.11-.38,0a.78.78,0,0,1-.3-.4,1.62,1.62,0,0,0-.64-1.6,3.81,3.81,0,0,0-2.44-.64,9.51,9.51,0,0,0-6.39,2.88,36.42,36.42,0,0,0-6.09,7.47,77.62,77.62,0,0,0-5.45,10.27,119.61,119.61,0,0,0-4.36,11.3,101.4,101.4,0,0,0-2.89,10.63,40.63,40.63,0,0,0-1.06,8.11c0,1.6.43,2.4,1.28,2.4a2.64,2.64,0,0,0,1.77-.8,15.5,15.5,0,0,0,2-2.4.28.28,0,0,1,.41,0,.53.53,0,0,1,.12.52,17.1,17.1,0,0,1-3.31,4,5.2,5.2,0,0,1-3.08,1.55,1.85,1.85,0,0,1-1.58-.84,3.82,3.82,0,0,1-.6-2.27,29.41,29.41,0,0,1,.75-5.8q.75-3.56,2.1-8t3.27-9.22q1.92-4.84,4.18-9.55t4.77-9a59,59,0,0,1,5.19-7.59,27.63,27.63,0,0,1,5.37-5.2A9.2,9.2,0,0,1,221.83,139.38Z"/><path class="cls-1" d="M214.16,179.81q.38.15.3.45c-.05.2-.28.33-.68.38l-2.67.15c-1,.05-2,.12-3,.22a75.69,75.69,0,0,0-2.48,7.22,21.86,21.86,0,0,0-1,5.71c0,1.71.65,2.56,1.95,2.56s2.73-1.15,4.29-3.46a.34.34,0,0,1,.45,0,.53.53,0,0,1,.15.56,14.7,14.7,0,0,1-1.54,2,13.13,13.13,0,0,1-1.77,1.62,11.89,11.89,0,0,1-1.73,1.09,3.14,3.14,0,0,1-1.35.41,2.94,2.94,0,0,1-2.45-1,3.9,3.9,0,0,1-.78-2.45,24,24,0,0,1,1.05-6.23,78.84,78.84,0,0,1,2.63-7.75l-1.88.3-1.73.3c-.25,0-.31-.17-.19-.37a2.07,2.07,0,0,1,.68-.6,7.38,7.38,0,0,1,1.16-.57,3.7,3.7,0,0,1,1.28-.26,3.47,3.47,0,0,1,.64-.08h.57q1-2.33,2.1-4.47t2.11-3.94a4.9,4.9,0,0,1,1-.79,3.41,3.41,0,0,1,1.09-.45,2.68,2.68,0,0,1,.83-.08c.2,0,.27.11.22.26q-1.28,2-2.52,4.36t-2.36,5q1.35,0,2.7,0C212.2,179.82,213.16,179.81,214.16,179.81Z"/><path class="cls-1" d="M229.79,181.31a1.27,1.27,0,0,1,.38-.49c.2-.17.44-.36.71-.56a5.61,5.61,0,0,1,.83-.49,1.86,1.86,0,0,1,.64-.19c.45,0,.63.18.53.53-1.11,3.11-2.18,6.13-3.24,9.06s-2.18,6-3.38,9.13a49.26,49.26,0,0,1-4.32,8.84,27.31,27.31,0,0,1-4.81,5.78,15.81,15.81,0,0,1-10.79,4.18,8.38,8.38,0,0,1-6.05-2,6.56,6.56,0,0,1-2.07-4.92,6.64,6.64,0,0,1,.72-2.86,7,7,0,0,1,2.21-2.63q.22-.15.42.15c.12.2.14.35,0,.45a4.89,4.89,0,0,0-1.2,3.24,7.22,7.22,0,0,0,1.81,5.11q1.8,2,5.48,2a13.79,13.79,0,0,0,4.85-.82,11.34,11.34,0,0,0,4.21-2.94,25,25,0,0,0,3.84-5.63,78.19,78.19,0,0,0,3.79-8.87q.83-2.49,1.62-4.59c.52-1.4,1.06-2.86,1.61-4.36a36.06,36.06,0,0,1-6,7.37q-3.12,2.85-5.53,3.08a1.51,1.51,0,0,1-1.43-.9,5.64,5.64,0,0,1-.45-2.48,16.24,16.24,0,0,1,.3-3,26.85,26.85,0,0,1,2.3-6.84,34.83,34.83,0,0,1,1.91-3.43c-.55.41-1.12.84-1.73,1.32a18.37,18.37,0,0,0-1.5,1.32c-.15.1-.29.06-.41-.12a.38.38,0,0,1,0-.48,25.2,25.2,0,0,1,2.86-2.41,27,27,0,0,1,3.53-2.26c.5,0,.7.23.6.68a23.21,23.21,0,0,0-2.07,3.35,33.69,33.69,0,0,0-1.61,3.68,25.79,25.79,0,0,0-1.05,3.65,15.38,15.38,0,0,0-.38,3.23c0,1.4.48,2.1,1.43,2.1a4.71,4.71,0,0,0,2.89-1.61,29.49,29.49,0,0,0,3.38-3.91,40.47,40.47,0,0,0,3.09-4.89A32.42,32.42,0,0,0,229.79,181.31Z"/><polygon class="cls-1" points="132.72 133.2 132.72 59.68 153.8 72.52 174.88 59.68 174.88 133.19 132.72 133.2"/><circle cx="165.99" cy="97.55" r="3.03"/></svg>