<svg id="Word_Mark_w_Lines" data-name="Word Mark w Lines" xmlns="http://www.w3.org/2000/svg" viewBox="0 0 306.46 87.07"><defs><style>.cls-1{fill:#010101;}.cls-2{fill:#d5af34;}</style></defs><title>Monumental Realty Logo</title><path class="cls-1" d="M19,38.94l9.9-22.48h8.33v.92h-1a6.61,6.61,0,0,0-2.62.33A1.75,1.75,0,0,0,32.8,19a25.5,25.5,0,0,0-.21,4.28V36.56a35.11,35.11,0,0,0,.16,4.2,2.16,2.16,0,0,0,.82,1.47,4.49,4.49,0,0,0,2.49.48h1.2v.92h-13v-.92h1a4.72,4.72,0,0,0,2.4-.44,2.07,2.07,0,0,0,.86-1.37,30.16,30.16,0,0,0,.19-4.34V19.27L17.93,43.63H17L6.15,19.27V35.18a30.8,30.8,0,0,0,.2,4.44A3.44,3.44,0,0,0,7.59,41.7a4.87,4.87,0,0,0,2.92,1v.92H.8v-.92a5,5,0,0,0,2.83-1A3.43,3.43,0,0,0,5,39.66a28.71,28.71,0,0,0,.24-4.6V23.23A27.05,27.05,0,0,0,5,19.05a1.81,1.81,0,0,0-.8-1.31,6.25,6.25,0,0,0-2.67-.36H.8v-.92H9.07Z"/><path class="cls-1" d="M40.15,29.87a12.94,12.94,0,0,1,4.21-10.1A15,15,0,0,1,54.86,16a15.4,15.4,0,0,1,10.6,3.77Q69.72,23.49,69.72,30a13.53,13.53,0,0,1-4.08,10.22q-4.06,3.9-10.72,3.9a14.86,14.86,0,0,1-10.62-3.9A13.56,13.56,0,0,1,40.15,29.87Zm4.59.14q0,6.54,2.61,9.84t7.85,3.28a8.85,8.85,0,0,0,7.25-3.28q2.67-3.3,2.66-9.8,0-6.33-2.62-9.71A9.08,9.08,0,0,0,54.87,17a9,9,0,0,0-7.52,3.3Q44.74,23.56,44.74,30Z"/><path class="cls-1" d="M97.07,44.25,77.86,18.79V37.64a12.62,12.62,0,0,0,.23,3.09,2.63,2.63,0,0,0,1.31,1.36,6.73,6.73,0,0,0,3.25.62v.92H72.51v-.92a7.24,7.24,0,0,0,3-.71,2.28,2.28,0,0,0,1.21-1.23,14.66,14.66,0,0,0,.2-3.13V23.23a18.52,18.52,0,0,0-.3-4.18,2,2,0,0,0-.92-1.37,8.09,8.09,0,0,0-2.81-.3v-.92h8L97,37.72V21.47A6,6,0,0,0,96.58,19a2.66,2.66,0,0,0-1.51-1.15,8,8,0,0,0-2.75-.42v-.92h9.86v.92a7.4,7.4,0,0,0-2.71.66A2.5,2.5,0,0,0,98.2,19.3a7.87,7.87,0,0,0-.27,2.47V44.25Z"/><path class="cls-1" d="M124.26,16.46h9.08v.92a4.88,4.88,0,0,0-2.7.82,2.81,2.81,0,0,0-1.09,1.55,18.14,18.14,0,0,0-.2,3.34v9a35.6,35.6,0,0,1-.27,5.15,7.21,7.21,0,0,1-1.56,3.31,8.81,8.81,0,0,1-3.64,2.58,14.16,14.16,0,0,1-5.41,1,13.88,13.88,0,0,1-6.14-1.23,7.82,7.82,0,0,1-3.59-3.19,10.94,10.94,0,0,1-1.07-5.24l0-2.78V23.23a27.05,27.05,0,0,0-.19-4.18,1.85,1.85,0,0,0-.8-1.31,6.25,6.25,0,0,0-2.67-.36h-.63v-.92h12.41v.92h-.54a6.63,6.63,0,0,0-2.63.33,1.77,1.77,0,0,0-.83,1.24,25.5,25.5,0,0,0-.21,4.28v8.56A33.57,33.57,0,0,0,112,38.1a5.52,5.52,0,0,0,2.31,3.26,8.39,8.39,0,0,0,5.07,1.39,10.72,10.72,0,0,0,4.52-.93,7.33,7.33,0,0,0,3-2.33,6.6,6.6,0,0,0,1.21-2.86,34.25,34.25,0,0,0,.22-4.64V22.73a13.71,13.71,0,0,0-.26-3.22A2.51,2.51,0,0,0,127,18a6.09,6.09,0,0,0-2.73-.66Z"/><path class="cls-1" d="M153.25,38.94l9.9-22.48h8.34v.92h-1a6.67,6.67,0,0,0-2.63.33A1.77,1.77,0,0,0,167,19a25.5,25.5,0,0,0-.21,4.28V36.56a33,33,0,0,0,.16,4.2,2.19,2.19,0,0,0,.81,1.47,4.55,4.55,0,0,0,2.5.48h1.2v.92h-13v-.92h1a4.68,4.68,0,0,0,2.39-.44,2,2,0,0,0,.86-1.37,28.68,28.68,0,0,0,.19-4.34V19.27L152.15,43.63h-.94L140.37,19.27V35.18a32.4,32.4,0,0,0,.2,4.44,3.53,3.53,0,0,0,1.24,2.08,4.91,4.91,0,0,0,2.93,1v.92H135v-.92a5,5,0,0,0,2.84-1,3.48,3.48,0,0,0,1.33-2.1,28.71,28.71,0,0,0,.24-4.6V23.23a27.05,27.05,0,0,0-.19-4.18,1.85,1.85,0,0,0-.8-1.31,6.28,6.28,0,0,0-2.68-.36H135v-.92h8.28Z"/><path class="cls-1" d="M195.69,35.18h1l-.59,8.45h-22.5v-.92h.56a4.24,4.24,0,0,0,2.62-.54,2.48,2.48,0,0,0,.75-1.37,31.32,31.32,0,0,0,.16-4.24V23.23a30.7,30.7,0,0,0-.17-4.08,1.9,1.9,0,0,0-.78-1.38,5.53,5.53,0,0,0-2.58-.39v-.92h19.42l.64,6.77h-.94a10.64,10.64,0,0,0-1.57-4,4,4,0,0,0-2.22-1.51,19.9,19.9,0,0,0-4.13-.31h-3.76v11.4h2.88a7.76,7.76,0,0,0,2.78-.34,1.76,1.76,0,0,0,1-1,9.25,9.25,0,0,0,.25-2.69h.94V34h-.94a8,8,0,0,0-.38-3A1.81,1.81,0,0,0,187,30a9,9,0,0,0-2.48-.23h-3v6.43c0,3.22.2,5.11.62,5.68s1.53.85,3.34.85h2a9.52,9.52,0,0,0,3.52-.55,6.28,6.28,0,0,0,2.64-2.27A13.27,13.27,0,0,0,195.69,35.18Z"/><path class="cls-1" d="M223.18,44.25,204,18.79V37.64a13.17,13.17,0,0,0,.23,3.09,2.63,2.63,0,0,0,1.31,1.36,6.73,6.73,0,0,0,3.25.62v.92H198.62v-.92a7.24,7.24,0,0,0,3-.71,2.31,2.31,0,0,0,1.22-1.23,15.69,15.69,0,0,0,.19-3.13V23.23a19.37,19.37,0,0,0-.29-4.18,2,2,0,0,0-.93-1.37,8.05,8.05,0,0,0-2.81-.3v-.92h8l16.09,21.26V21.47a6,6,0,0,0-.37-2.52,2.63,2.63,0,0,0-1.51-1.15,8,8,0,0,0-2.75-.42v-.92h9.86v.92a7.4,7.4,0,0,0-2.71.66,2.47,2.47,0,0,0-1.26,1.26,7.58,7.58,0,0,0-.27,2.47V44.25Z"/><path class="cls-1" d="M230.66,23h-.92l.14-6.53h26.36l.14,6.53h-.86a10.28,10.28,0,0,0-1.26-3.87,3.32,3.32,0,0,0-1.72-1.47,12.71,12.71,0,0,0-3.15-.27H245V36.56a36,36,0,0,0,.15,4.19,2.14,2.14,0,0,0,.81,1.48,4.56,4.56,0,0,0,2.49.48h1.32v.92H236.25v-.92h1.4a4.71,4.71,0,0,0,2.41-.44,2,2,0,0,0,.87-1.37,30.16,30.16,0,0,0,.19-4.34V17.38h-4a16.38,16.38,0,0,0-3.53.25,3.21,3.21,0,0,0-1.69,1.52A10.62,10.62,0,0,0,230.66,23Z"/><path class="cls-1" d="M271.59,33.61H261.27l-.7,1.73A17.34,17.34,0,0,0,259,40.23a2.19,2.19,0,0,0,.83,1.85,3.45,3.45,0,0,0,2.13.63v.92H253.9v-.92a4.34,4.34,0,0,0,2.68-1.27,15.6,15.6,0,0,0,2.13-4.18c.07-.2.39-1,1-2.32l7.9-18.86h.78l9.07,21.58,1.25,2.85A3.74,3.74,0,0,0,279.8,42a4.05,4.05,0,0,0,2.13.69v.92H271.25v-.92a8.1,8.1,0,0,0,2.66-.29,1.12,1.12,0,0,0,.69-1.15,11.84,11.84,0,0,0-.92-2.63Zm-.34-.9-4.81-11.58-4.79,11.58Z"/><path class="cls-1" d="M306.12,35.64l-.2,8H282.83v-.92h.8a4.76,4.76,0,0,0,2.42-.44,2,2,0,0,0,.86-1.37,28.68,28.68,0,0,0,.19-4.34V23.23a27.05,27.05,0,0,0-.19-4.18,1.85,1.85,0,0,0-.8-1.31,6.28,6.28,0,0,0-2.68-.36h-.6v-.92h13.05v.92h-1.21a6.61,6.61,0,0,0-2.62.33,1.77,1.77,0,0,0-.83,1.24,25.5,25.5,0,0,0-.21,4.28V37.46a24,24,0,0,0,.16,3.69A1.73,1.73,0,0,0,292,42.3a7.24,7.24,0,0,0,3,.41h2.07a11.78,11.78,0,0,0,3.72-.44,5.27,5.27,0,0,0,2.3-1.92,15,15,0,0,0,2-4.71Z"/><polyline class="cls-1" points="306.46 0 0 0 0 3.48 306.46 3.48"/><rect class="cls-1" y="56.07" width="125.83" height="3.48"/><rect class="cls-1" x="242.07" y="56.07" width="64.39" height="3.48"/><path class="cls-2" d="M144.91,51.72a17.85,17.85,0,0,1-.22,2.62c-.15,1-.35,2-.6,3a20.73,20.73,0,0,1,3.29-5.65,5.19,5.19,0,0,1,3.9-2.06,2.59,2.59,0,0,1,1.49.45,1.44,1.44,0,0,1,.68,1.27,3.76,3.76,0,0,1-.45,1.54,5.13,5.13,0,0,1-.9,1.38c-.3.2-.45.13-.45-.22,0-.85-.57-1.27-1.72-1.27q-2.62,0-4.72,3.93a53.07,53.07,0,0,0-4,10.9,1.24,1.24,0,0,1-1,1,5.88,5.88,0,0,1-1.46.22c-.55,0-.67-.27-.37-.82.44-1,.87-2.18,1.27-3.41s.78-2.46,1.16-3.71.68-2.47.94-3.66.44-2.3.59-3.3c.2-1.5-.05-2.25-.74-2.25a2.29,2.29,0,0,0-1.39.68,10,10,0,0,0-1.46,1.57.43.43,0,0,1-.52,0,.35.35,0,0,1-.08-.48,17.56,17.56,0,0,1,2.51-2.59,4.16,4.16,0,0,1,2.58-1.16Q144.91,49.62,144.91,51.72Z"/><path class="cls-2" d="M165.88,52.92a2.81,2.81,0,0,1-.82,1.94,7.57,7.57,0,0,1-2.25,1.61,22.33,22.33,0,0,1-3.26,1.31c-1.22.4-2.51.78-3.86,1.13-.05.55-.08,1.1-.11,1.65s0,1.14,0,1.79a5.68,5.68,0,0,0,.83,3.15,2.6,2.6,0,0,0,2.32,1.27A5.55,5.55,0,0,0,161.5,66a8.61,8.61,0,0,0,2.36-2c.2-.1.35-.07.45.08a.49.49,0,0,1,0,.52,12.07,12.07,0,0,1-3.19,3,7.25,7.25,0,0,1-4,1.23,4.26,4.26,0,0,1-3.19-1.27,5.19,5.19,0,0,1-1.23-3.74,15.23,15.23,0,0,1,.82-4.76,20.55,20.55,0,0,1,2.17-4.61A13.64,13.64,0,0,1,158.8,51a6,6,0,0,1,3.71-1.35,3.22,3.22,0,0,1,2.4,1A3.27,3.27,0,0,1,165.88,52.92Zm-4.94-1.35a4,4,0,0,0-3.07,1.5,9.66,9.66,0,0,0-2,4.71,14.73,14.73,0,0,0,5.28-1.53c1.12-.68,1.68-1.44,1.68-2.29a2.73,2.73,0,0,0-.52-1.72A1.7,1.7,0,0,0,160.94,51.57Z"/><path class="cls-2" d="M186.1,64.08a.28.28,0,0,1,.38,0,.38.38,0,0,1,.15.44,13.17,13.17,0,0,1-3.11,3.22,4.87,4.87,0,0,1-2.59,1.05,1.22,1.22,0,0,1-1.08-.67,4.32,4.32,0,0,1-.53-1.83,11.9,11.9,0,0,1,.08-2.63,20,20,0,0,1,.64-3,34,34,0,0,1-4.27,5.43,9.05,9.05,0,0,1-4.35,2.73,2.72,2.72,0,0,1-2.28-1.31,7,7,0,0,1-.94-4.08,12.72,12.72,0,0,1,1-4.9A16.12,16.12,0,0,1,172,54.08a13.82,13.82,0,0,1,4-3.19,10,10,0,0,1,4.71-1.19A8,8,0,0,1,183,50a6.38,6.38,0,0,1,1.79.89,5.74,5.74,0,0,1,1.24-.71,3.77,3.77,0,0,1,1.46-.33c.25,0,.32.12.22.37a23.75,23.75,0,0,0-2.95,4.64,29.49,29.49,0,0,0-1.91,5A24.79,24.79,0,0,0,182,64a4.1,4.1,0,0,0,.26,2.51q.38.53,1.35,0A9.29,9.29,0,0,0,186.1,64.08Zm-13,2.17a3.7,3.7,0,0,0,2.13-1.16,21.19,21.19,0,0,0,2.74-3,43.11,43.11,0,0,0,2.81-4.23,46.33,46.33,0,0,0,2.43-4.75,2.72,2.72,0,0,0-1.39-1.58,5.08,5.08,0,0,0-2.5-.6,6.05,6.05,0,0,0-3.11.86,8.76,8.76,0,0,0-2.59,2.4,13.08,13.08,0,0,0-1.79,3.63,15.14,15.14,0,0,0-.68,4.65,6,6,0,0,0,.56,2.73C172.06,65.89,172.52,66.25,173.07,66.25Z"/><path class="cls-2" d="M221,9.65a2.39,2.39,0,0,1,2.51,1.91,5.53,5.53,0,0,1-.49,4.06c-.1.1-.22.1-.37,0a.78.78,0,0,1-.3-.4,1.59,1.59,0,0,0-.64-1.59,3.78,3.78,0,0,0-2.43-.64,9.46,9.46,0,0,0-6.37,2.87,36.72,36.72,0,0,0-6.06,7.44,76.48,76.48,0,0,0-5.43,10.23,118.83,118.83,0,0,0-4.35,11.26,102.47,102.47,0,0,0-2.88,10.59,41,41,0,0,0-1.05,8.08c0,1.59.42,2.39,1.27,2.39a2.6,2.6,0,0,0,1.76-.8,14.81,14.81,0,0,0,2-2.39.29.29,0,0,1,.41,0,.55.55,0,0,1,.11.52,16.49,16.49,0,0,1-3.29,4,5.12,5.12,0,0,1-3.07,1.55,1.85,1.85,0,0,1-1.58-.83,3.84,3.84,0,0,1-.59-2.27,28.94,28.94,0,0,1,.74-5.77q.75-3.54,2.1-7.92t3.26-9.2q1.91-4.81,4.16-9.51t4.75-9a59.94,59.94,0,0,1,5.17-7.56,27.93,27.93,0,0,1,5.35-5.17A9.15,9.15,0,0,1,221,9.65Z"/><path class="cls-2" d="M213.36,49.92q.38.15.3.45c0,.2-.27.32-.67.37-.8,0-1.69.11-2.66.15s-2,.13-3,.23a72.4,72.4,0,0,0-2.47,7.19,21.73,21.73,0,0,0-1,5.69c0,1.7.64,2.55,1.94,2.55s2.72-1.15,4.27-3.45a.35.35,0,0,1,.45,0,.53.53,0,0,1,.15.56,15.27,15.27,0,0,1-1.53,2,13.72,13.72,0,0,1-1.77,1.61,11.21,11.21,0,0,1-1.72,1.08,3.14,3.14,0,0,1-1.35.41,2.87,2.87,0,0,1-2.43-1,3.85,3.85,0,0,1-.79-2.43,24,24,0,0,1,1-6.22,79,79,0,0,1,2.62-7.71l-1.87.3-1.72.3c-.25-.05-.31-.18-.19-.38a2.07,2.07,0,0,1,.68-.6,8.42,8.42,0,0,1,1.16-.56,3.6,3.6,0,0,1,1.27-.26,3.27,3.27,0,0,1,.64-.07h.56q1.05-2.32,2.09-4.46t2.1-3.93a5.6,5.6,0,0,1,1-.79,3.94,3.94,0,0,1,1.09-.45,2.56,2.56,0,0,1,.82-.07c.2,0,.28.11.23.26a48.92,48.92,0,0,0-2.51,4.34c-.83,1.6-1.61,3.25-2.36,5,.9,0,1.8,0,2.7,0S212.36,49.92,213.36,49.92Z"/><path class="cls-2" d="M228.94,51.42a1.23,1.23,0,0,1,.37-.49c.2-.17.44-.36.71-.56a5.14,5.14,0,0,1,.83-.49,1.75,1.75,0,0,1,.63-.18c.45,0,.63.17.53.52q-1.65,4.65-3.22,9t-3.37,9.1a49.13,49.13,0,0,1-4.31,8.8,26.94,26.94,0,0,1-4.79,5.77,16.3,16.3,0,0,1-5.21,3.18,16.13,16.13,0,0,1-5.54,1,8.35,8.35,0,0,1-6-2,6.55,6.55,0,0,1-2.06-4.9,6.72,6.72,0,0,1,.71-2.85,7.2,7.2,0,0,1,2.21-2.62q.22-.15.42.15t0,.45a4.86,4.86,0,0,0-1.2,3.22,7.2,7.2,0,0,0,1.8,5.09q1.8,1.95,5.47,1.95a13.68,13.68,0,0,0,4.83-.82,11.33,11.33,0,0,0,4.19-2.92,24.81,24.81,0,0,0,3.82-5.62,75,75,0,0,0,3.79-8.84q.81-2.48,1.61-4.57c.52-1.4,1.06-2.84,1.61-4.34a36.41,36.41,0,0,1-6,7.34c-2.07,1.9-3.91,2.92-5.5,3.07a1.5,1.5,0,0,1-1.43-.9,5.6,5.6,0,0,1-.44-2.47,17.09,17.09,0,0,1,.29-3A27.56,27.56,0,0,1,216,55.72a34.37,34.37,0,0,1,1.91-3.4c-.55.4-1.12.83-1.72,1.31a16.69,16.69,0,0,0-1.5,1.31c-.15.1-.29.06-.41-.11a.4.4,0,0,1,0-.49,27.92,27.92,0,0,1,2.84-2.4,25.73,25.73,0,0,1,3.53-2.24c.49,0,.69.22.59.67a24.44,24.44,0,0,0-2.06,3.33,35.32,35.32,0,0,0-1.61,3.67,26,26,0,0,0-1,3.64,15.9,15.9,0,0,0-.38,3.22c0,1.39.48,2.09,1.42,2.09a4.66,4.66,0,0,0,2.89-1.61,30.73,30.73,0,0,0,3.37-3.89A41.36,41.36,0,0,0,226.88,56,32.3,32.3,0,0,0,228.94,51.42Z"/></svg>